<?xml version="1.0" encoding="UTF-8" standalone="no"?>
<!-- Generator: Adobe Illustrator 14.0.0, SVG Export Plug-In . SVG Version: 6.00 Build 43363)  -->

<svg
   version="1.1"
   x="0px"
   y="0px"
   width="240"
   height="240"
   viewBox="0 0 240 240"
   xml:space="preserve"
   id="svg40"
   sodipodi:docname="dandan_right.svg"
   inkscape:version="1.3.2 (091e20e, 2023-11-25)"
   inkscape:export-filename="dandan_right.png"
   inkscape:export-xdpi="384"
   inkscape:export-ydpi="384"
   xmlns:inkscape="http://www.inkscape.org/namespaces/inkscape"
   xmlns:sodipodi="http://sodipodi.sourceforge.net/DTD/sodipodi-0.dtd"
   xmlns:xlink="http://www.w3.org/1999/xlink"
   xmlns="http://www.w3.org/2000/svg"
   xmlns:svg="http://www.w3.org/2000/svg"><defs
   id="defs40" /><sodipodi:namedview
   id="namedview40"
   pagecolor="#ffffff"
   bordercolor="#666666"
   borderopacity="1.0"
   inkscape:showpageshadow="2"
   inkscape:pageopacity="0.0"
   inkscape:pagecheckerboard="0"
   inkscape:deskcolor="#d1d1d1"
   inkscape:zoom="2.085965"
   inkscape:cx="139.98317"
   inkscape:cy="162.03532"
   inkscape:window-width="1528"
   inkscape:window-height="1027"
   inkscape:window-x="63"
   inkscape:window-y="25"
   inkscape:window-maximized="0"
   inkscape:current-layer="svg40" />

<g
   id="guanghuan"
   transform="translate(0,-46)">
	<circle
   id="huan3"
   fill="#ffb821"
   stroke="#000000"
   cx="119.357"
   cy="165.326"
   r="110.129"
   style="fill:#f3a900;fill-opacity:1"
   sodipodi:insensitive="true" />
	<circle
   id="huan2"
   fill="#dd900d"
   stroke="#000000"
   cx="119.357"
   cy="165.326"
   r="86.796997"
   sodipodi:insensitive="true" />
	<circle
   id="huan1"
   fill="#c97203"
   stroke="#000000"
   cx="119.357"
   cy="165.326"
   r="65.355003"
   style="fill:#a35c03;fill-opacity:1" />
	<circle
   id="huan0"
   fill="#0000ff"
   stroke="#000000"
   cx="119.357"
   cy="165.326"
   r="47.174"
   sodipodi:insensitive="true" />
</g>

<g
   id="jiasha"
   transform="translate(0,-46)">
	<path
   fill="#584430"
   stroke="#000000"
   stroke-width="0.5"
   d="m 66.331,231.489 17.543,-7.708 65.148,54.041 H 35.573 c 0,0 0.526,-28.934 8.959,-35.882 2.81,-2.314 21.799,-10.451 21.799,-10.451 z"
   id="path10" />
	<path
   fill="#584430"
   stroke="#000000"
   stroke-width="0.5"
   d="m 130.496,250.02 20.672,-24.665 c 0,0 10.577,4.332 18.543,7.831 5.743,2.522 13.693,-0.459 16.436,5.841 C 192.691,254.063 196,278 196,278 h -87 z"
   id="path11" />
	<path
   fill="none"
   stroke="#000000"
   stroke-width="0.5"
   d="m 77.801,231.667 c 4.327,7.244 18.108,20.714 30.533,27.318"
   id="path12" />
	<path
   fill="none"
   stroke="#000000"
   stroke-width="0.5"
   d="m 156,237.667 c 0,0 -6.978,4.833 -12.203,12.071 -2.422,3.354 -7.323,9.798 -11.13,12.247"
   id="path13" />
</g>
<g
   id="touxiang"
   transform="translate(0,-46)">
	<path
   fill="#906c50"
   stroke="#000000"
   stroke-width="0.5"
   d="m 94.25,206.75 c -0.858,1.035 1.434,4.489 -0.904,7.182 -1.398,1.61 -3.888,5.094 -5.349,5.538 -3.242,0.985 -4.123,4.312 -4.123,4.312 0,0 12.154,10.934 16.792,14.886 5.477,4.666 23.712,19.315 23.712,19.315 0,0 5.651,-6.415 11.455,-12.656 8.59,-9.236 16.13,-19.346 16.032,-19.347 -0.052,-10e-4 -3.189,-2.193 -5.325,-6.295 -1.896,-3.642 -2.823,-9.247 -2.823,-9.247 0.809,-2.707 -4.859,10.76 -17.816,10.719 -14.602,-0.046 -29.043,-8.617 -31.712,-14.068"
   id="path14" />
	<path
   fill="#906c50"
   stroke="#000000"
   stroke-width="0.5"
   d="m 126.732,154.646 c 0,0 -23.259,-3.691 -33.042,10.521 -9.784,14.214 -4.615,30.089 -1.662,38.027 2.954,7.938 15.499,16.342 24.459,17.598 9.229,1.292 17.632,0.121 22.652,-5.277 7.961,-8.559 7.898,-8.814 11.591,-20.074 3.691,-11.26 1.291,-33.411 -6.646,-39.688 -8.309,-6.569 -17.352,-1.107 -17.352,-1.107 z"
   id="path15" />
	<path
   stroke="#000000"
   stroke-width="0.5"
   d="m 100.787,158.672 c -13.764,8.545 -12.285,25.785 -12.79,27.982 0,0 -1.876,-8.934 -6.675,-11.148 -4.799,-2.216 -4.8,-0.369 -5.538,1.292 -0.738,1.661 -1.107,-4.431 1.108,-10.153 2.215,-5.723 5.907,-16.798 15.69,-22.705 9.784,-5.906 23.321,-5.537 27.628,-5.354 4.308,0.186 20.552,2.585 26.458,8.861 5.908,6.275 5.154,33.665 5.179,26.836 0.021,-6.032 -7.492,-20.101 -5.821,-17 -5.494,-5.775 -16.014,-5.211 -19.293,-2.637 -0.001,0 -14.941,-2.807 -25.946,4.026 z"
   id="path16" />
	<path
   d="m 132.091,200.313 c -0.231,0 -0.462,-0.029 -0.685,-0.101 -0.593,-0.187 -1.068,-0.633 -1.414,-1.323 -1.182,-2.363 0.074,-3.865 0.748,-4.672 0.14,-0.168 0.884,-0.437 0.884,-0.437 0,0.241 -0.183,0.46 -0.458,0.79 -0.635,0.76 -1.697,2.032 -0.679,4.07 0.28,0.56 0.636,0.9 1.085,1.043 0.943,0.299 2.154,-0.355 2.955,-0.787 0.575,-0.311 0.892,-0.482 1.152,-0.395 0.16,0.053 0.309,0.182 0.496,0.346 0.339,0.293 0.759,0.658 1.273,0.58 0.537,-0.083 1.12,-0.635 1.733,-1.639 1.162,-1.902 -0.288,-8.912 -1.454,-14.547 -0.822,-3.971 -1.531,-7.402 -1.301,-8.708 0,0 1.066,4.843 1.843,8.597 1.247,6.027 2.661,12.858 1.385,14.947 -0.712,1.166 -1.406,1.786 -2.122,1.896 -0.77,0.12 -1.34,-0.38 -1.72,-0.709 -0.106,-0.094 -0.253,-0.221 -0.309,-0.238 -0.071,0.01 -0.428,0.202 -0.714,0.356 -0.713,0.388 -1.723,0.931 -2.698,0.931 z"
   id="path17" />
	<path
   fill="#906c50"
   stroke="#000000"
   stroke-width="0.5"
   d="m 84.229,219.393 c -1.841,-0.92 -3.046,-13.844 -4.569,-20.49 -1.522,-6.645 -5.651,-14.801 -5.91,-16.902 -0.259,-2.101 -0.014,-6.494 4.111,-7.418 3.647,-0.816 8.679,3.657 10.136,12.072 1.457,8.414 3.35,14.896 5.463,20.434 2.167,5.676 0.373,7.079 -1.617,9.674 -1.864,2.431 -6.229,3.322 -7.614,2.63 z"
   id="path18" />
	<path
   d="m 143.83,216.348 c 0,0 -11.837,7.488 -23.639,7.891 -11.789,0.404 -23.893,-9.529 -23.893,-9.529 3.853,3.576 14.006,10.453 23.931,10.637 9.757,0.18 23.242,-7.908 23.601,-8.999 z"
   id="path19" />
	<path
   d="m 123.582,230.063 c -14.079,2.68 -31.653,-11.828 -31.653,-11.828 1.999,4.482 17.705,10.78 17.705,10.78 1.592,1.315 10.084,2.582 14.053,1.731 10.544,-2.262 17.521,-7.341 19.866,-11.734 0,0 -9.801,9.114 -19.971,11.051 z"
   id="path20" />
	<path
   d="m 139.338,181.825 c -0.512,-3.124 0.047,-5.431 1.662,-6.854 2.803,-2.471 7.605,-1.303 9.01,-0.886 1.75,0.519 1.911,1.337 2.051,1.947 0,0 -1.34,-1.184 -2.238,-1.45 -2.611,-0.773 -6.527,-0.74 -8.415,0.924 -2.268,1.998 -1.933,5.392 -2.07,6.319 z"
   id="path21" />
	<path
   fill="none"
   stroke="#000000"
   d="m 108.973,183.119 c 0,0 0.687,-0.461 5.253,-1.291 13.332,-2.423 11.077,0.791 12.645,1.237 0,0 -1.83,2.546 -6.661,2.27 -4.831,-0.276 -3.254,-0.576 -6.671,-1.384 -3.416,-0.808 -4.566,-0.832 -4.566,-0.832 z"
   id="path22" />
	<path
   fill="none"
   stroke="#000000"
   d="m 141.131,181.735 c 1.246,-3.323 4.152,-4.292 5.398,-4.707 1.246,-0.415 4.926,0.187 5.337,0.839 0.302,0.479 -0.71,1.914 -1.093,2.166 -1.647,1.084 -1.694,1.426 -4.146,1.702 -2.451,0.277 -5.496,0 -5.496,0 z"
   id="path23" />
	<path
   stroke="#000000"
   stroke-width="0.5"
   d="m 148.078,177.133 c -0.598,0.229 -0.661,1.722 -0.703,2.438 -0.012,0.208 1.662,0 1.662,0 l -2.203,2.089 c -0.529,0.133 2.453,-0.479 3.744,-1.968 1.049,-1.21 1.113,-1.63 1.113,-1.63 -0.488,-0.265 -2.847,-1.225 -3.613,-0.929 z"
   id="path24" />
	<path
   stroke="#000000"
   stroke-width="0.5"
   d="m 120.21,181.735 c 0,0 -0.861,1.708 1.63,2.815 2.492,1.107 5.031,-1.485 5.031,-1.485 -1.064,-0.821 -1.336,-2.106 -3.402,-2.054 -0.717,0.018 -3.127,0.352 -3.259,0.724 z"
   id="path25" />
	<path
   d="m 81.75,188.951 c 0.92,-4.074 0.7,-4.99 0.045,-7.707 l -0.043,-0.182 c -0.343,-1.424 -2.647,-2.854 -2.834,-2.867 -0.114,0.289 -2.44,2.776 -2.44,2.776 -0.108,-1.534 1.734,-3.863 2.327,-3.885 1.113,-0.067 3.412,1.165 4.024,3.717 l 0.044,0.181 c 0.661,2.747 0.935,3.885 -0.042,8.211 -0.899,3.979 1.043,9.748 1.043,9.748 0,0 -3.108,-5.63 -2.124,-9.992 z"
   id="path26" />
	<path
   d="m 149.232,164.566 c 2.5,-0.33 -9.348,-0.69 -11.286,1.663 -1.938,2.353 -1.246,1.661 -1.8,3.046 -0.554,1.385 2.77,-3.046 4.776,-3.461 2.008,-0.416 7.275,-1.111 8.31,-1.248 z"
   id="path27" />
	<path
   stroke="#000000"
   stroke-width="0.5"
   d="m 127.701,171.213 c 0,-2.77 -3.711,-2.883 -5.895,-3.004 -5.51,-0.305 -11.014,0.248 -16.374,1.586 -4.424,1.104 -9.575,2.504 -12.999,5.711 0,0 3.764,-1.863 8.2,-3.254 4.606,-1.443 9.928,-2.423 12.114,-2.71 2.812,-0.369 6.877,-0.519 10.314,0 1.809,0.273 3.226,1.013 4.667,1.395"
   id="path28" />
	<path
   d="m 128.042,180.166 c 0,0 -2.062,-3.249 -7.583,-3.249 -2.904,0 -11.863,2.558 -11.863,2.558 0,0 5.481,-2.319 9.326,-2.859 7.891,-1.11 8.711,2.321 10.12,3.55 z"
   id="path29" />
</g>
<g
   id="zuicun"
   transform="translate(0,-46)">
	<path
   fill="#c81c10"
   stroke="#000000"
   stroke-width="0.5"
   d="m 139.562,203.795 c 0.897,-0.633 1.361,-1.916 1.361,-1.916 -3.071,3.559 -14.19,2.25 -16.544,1.004 0,0 4.552,1.959 6.068,3.188 0.653,0.529 1.467,1.081 2.285,1.017 1.08,-0.086 2.102,-0.906 2.102,-0.906 0,0 1.45,1.76 3.112,-0.588 0.159,-0.225 0.462,-0.987 1.616,-1.799 z"
   id="path30" />
	<path
   fill="#c81c10"
   stroke="#000000"
   stroke-width="0.5"
   d="m 138.916,203.453 c -1.16,0.543 -2.861,0.752 -4.473,0.948 -3.449,0.421 -10.064,-1.519 -10.064,-1.519 0,0 4.443,0.385 5.838,0.266 0.702,-0.059 1.459,-1.142 2.191,-1.512 0.382,-0.192 0.469,-0.125 0.641,-0.068 0.49,0.16 0.539,1.459 1.785,1.326 0.701,-0.291 0.864,-0.656 1.14,-1.326 0.067,-0.166 0.575,-0.227 0.935,-0.047 0.476,0.24 0.797,0.905 1.107,0.912 0.551,0.012 2.907,-0.555 2.907,-0.555 0,0 -0.677,0.952 -2.007,1.575 z"
   id="path31" />
</g>

<g
   id="lianhua"
   transform="translate(165.25652,223.02269)">
	<g
   id="g40">
		<path
   fill="#ff00ff"
   d="m -6.771,-5.619 c -1.673,-2.081 -2.531,-5.452 -0.925,-7.759 0.748,-1.154 2.263,-1.47 3.258,-2.328 0.996,-0.859 2.127,-1.538 2.377,-2.94 0.564,1.471 1.401,2.511 2.645,3.417 1.176,0.814 2.578,1.064 3.596,2.082 1.176,1.154 2.24,2.082 2.058,3.801 -0.114,1.47 -0.952,2.691 -1.901,3.799 -0.658,0.746 -1.405,1.334 -2.197,1.899 -0.746,0.589 -1.426,1.606 -2.196,2.013 0.069,-0.475 1.993,-2.623 2.671,-3.188 1.108,-0.973 1.788,-2.104 2.309,-3.482 1.403,-3.711 -2.079,-4.661 -4.612,-6.269 -0.904,-0.565 -1.764,-1.335 -2.578,-2.082 -0.837,0.882 -1.651,1.606 -2.691,2.216 -1.064,0.656 -2.127,0.973 -2.762,2.125 -0.656,1.199 -0.407,2.285 -0.182,3.529 0.181,0.656 0.226,1.131 0.498,1.719 0.225,0.453 0.768,1.402 0.609,1.381"
   id="path36" />
		<path
   fill="#ff00ff"
   d="m 4.7,-0.42 c 2.941,-0.355 5.059,-4.115 6.088,-6.492 0.559,-1.328 0.203,-2.761 0.756,-4.031 0.643,-1.551 2.988,-0.758 3.295,-2.404 1.313,1.195 2.801,1.367 4.479,1.908 2.066,0.703 1.491,2.668 0.511,4.121 -1.127,1.727 -2.751,3.223 -4.448,4.361 -1.271,0.955 -3.676,2.186 -5.273,1.943 2.804,-0.662 6.207,-2.998 8.384,-5.764 0.959,-1.281 2.219,-2.644 0.506,-3.886 -0.748,-0.551 -1.29,-0.382 -2.143,-0.538 -0.687,-0.079 -1.449,-0.516 -2.046,-0.875 -0.63,1.437 -2.471,0.296 -2.696,2.242 -0.235,1.539 -0.432,2.735 -1.169,4.1 C 10.197,-4.311 9.927,-3.471 8.7,-2.395 7.927,-1.729 5.813,0 4.644,-0.426"
   id="path37" />
		<path
   fill="#ff00ff"
   d="m 3.55,-13.704 c 1.087,-0.83 1.533,-1.686 1.768,-2.854 2.159,1.492 5.951,0.449 6.5,4.715 0.323,2.512 -1.159,6.172 -2.916,8.072 -0.62,0.645 -1.235,1.242 -1.985,1.729 -0.751,0.486 -1.774,0.75 -2.433,1.295 2.965,-0.756 5.521,-3.565 6.676,-5.82 1.148,-2.209 1.801,-5.286 0.43,-7.594 -1.158,-1.996 -3.504,-1.886 -5.396,-2.678 -0.283,-0.128 -1.196,-0.807 -1.452,-0.74 -0.354,0.055 -0.185,0.743 -0.278,1.114 -0.189,0.79 -0.337,2.063 -0.962,2.755"
   id="path38" />
		<path
   fill="#ff00ff"
   d="m -4.367,-1.641 c -2.942,-0.356 -5.06,-4.115 -6.088,-6.492 -0.56,-1.328 -0.203,-2.761 -0.756,-4.031 -0.644,-1.551 -2.989,-0.758 -3.295,-2.404 -1.313,1.195 -2.801,1.367 -4.479,1.908 -2.066,0.703 -1.49,2.668 -0.51,4.121 1.127,1.727 2.75,3.223 4.448,4.36 1.271,0.956 3.677,2.187 5.272,1.944 -2.803,-0.662 -6.206,-2.998 -8.383,-5.764 -0.959,-1.281 -2.219,-2.645 -0.506,-3.887 0.748,-0.551 1.29,-0.381 2.143,-0.537 0.687,-0.079 1.449,-0.516 2.046,-0.875 0.63,1.437 2.472,0.296 2.696,2.242 0.235,1.539 0.432,2.735 1.17,4.1 0.744,1.424 1.015,2.264 2.242,3.34 0.773,0.665 2.887,2.395 4.057,1.969"
   id="path39" />
		<path
   fill="#ff00ff"
   d="m -7.451,-12.373 c -0.03,-1.336 -0.599,-2.485 -1.048,-3.68 -0.801,0.342 -1.688,0.756 -2.377,1.271 -0.772,0.587 -1.34,1.338 -2.049,1.95 0.099,-1.04 1.318,-2.084 2.084,-2.732 0.882,-0.726 1.957,-1.13 2.766,-1.939 0.127,0.826 0.174,1.506 0.396,2.353 0.119,0.485 0.227,1.08 0.308,1.585 0.109,0.672 -0.017,0.936 -0.032,1.342"
   id="path40" />
	</g>
    <animateMotion
   dur="3s"
   fill="freeze">
       <mpath
   xlink:href="#lianhuapath" />
    </animateMotion>			
</g>

</svg>
