<?xml version="1.0" encoding="UTF-8" standalone="no"?>
<!-- Generator: Adobe Illustrator 27.5.0, SVG Export Plug-In . SVG Version: 6.00 Build 0)  -->

<svg
   version="1.1"
   id="svg40"
   x="0px"
   y="0px"
   viewBox="0 0 52.1 30.1"
   style="enable-background:new 0 0 52.1 30.1;"
   xml:space="preserve"
   sodipodi:docname="lotus.svg"
   inkscape:version="1.3.2 (091e20e, 2023-11-25)"
   inkscape:export-filename="lotus.png"
   inkscape:export-xdpi="720"
   inkscape:export-ydpi="720"
   xmlns:inkscape="http://www.inkscape.org/namespaces/inkscape"
   xmlns:sodipodi="http://sodipodi.sourceforge.net/DTD/sodipodi-0.dtd"
   xmlns="http://www.w3.org/2000/svg"
   xmlns:svg="http://www.w3.org/2000/svg"><defs
   id="defs1">
	
	

		
		
		
		
		
	</defs>
<style
   type="text/css"
   id="style1">
	.st0{fill:#FF00FF;}
	
		.st1{display:none;fill-rule:evenodd;clip-rule:evenodd;fill:#0000FF;stroke:#0000C6;stroke-width:3.152;stroke-linecap:round;stroke-linejoin:round;stroke-opacity:0.9441;}
</style>
<sodipodi:namedview
   bordercolor="#666666"
   borderopacity="1.0"
   id="namedview40"
   inkscape:current-layer="svg40"
   inkscape:cx="25.817016"
   inkscape:cy="14.626371"
   inkscape:deskcolor="#d1d1d1"
   inkscape:pagecheckerboard="0"
   inkscape:pageopacity="0.0"
   inkscape:showpageshadow="2"
   inkscape:window-height="1027"
   inkscape:window-maximized="0"
   inkscape:window-width="1864"
   inkscape:window-x="63"
   inkscape:window-y="25"
   inkscape:zoom="20.374159"
   pagecolor="#ffffff">
	</sodipodi:namedview>
<g
   id="g1"
   style="fill-opacity:1;fill:#ff0075"><path
     id="path2"
     class="st0"
     d="m 19.45652,19.52269 c -1.7,-2.1 -2.5,-5.5 -0.9,-7.8 0.7,-1.2 2.3,-1.5 3.3,-2.3 1,-0.9 2.1,-1.5 2.4,-2.9 0.6,1.5 1.4,2.5 2.6,3.4 1.2,0.8 2.6,1.1 3.6,2.1 1.2,1.2 2.2,2.1 2.1,3.8 -0.1,1.5 -1,2.7 -1.9,3.8 -0.7,0.7 -1.4,1.3 -2.2,1.9 -0.7,0.6 -1.4,1.6 -2.2,2 0.1,-0.5 2,-2.6 2.7,-3.2 1.1,-1 1.8,-2.1 2.3,-3.5 1.4,-3.7 -2.1,-4.7 -4.6,-6.3 -0.9,-0.6 -1.8,-1.3 -2.6,-2.1 -0.8,0.9 -1.7,1.6 -2.7,2.2 -1.1,0.7 -2.1,1 -2.8,2.1 -0.7,1.2 -0.4,2.3 -0.2,3.5 0.2,0.7 0.2,1.1 0.5,1.7 0.1,0.6 0.7,1.5 0.6,1.6"
     style="fill-opacity:1;fill:#ff0075" /><path
     id="path3"
     class="st0"
     d="m 30.365702,22.624526 c 2.949082,-0.9399 5.590818,-4.001836 6.590818,-6.401836 0.6,-1.3 0.2,-2.8 0.8,-4 0.6,-1.6 3,-0.8 3.3,-2.4 1.3,1.2 2.8,1.4 4.5,1.9 2.1,0.7 1.254591,2.601836 0.254591,4.001836 -1.1,1.7 -3.585308,3.445409 -5.52888,4.449082 -1.692655,0.754591 -6.252253,2.985309 -7.852253,2.685309 2.8,-0.7 10.126542,-3.736227 12.326542,-6.536227 1,-1.3 2.2,-2.6 0.5,-3.9 -0.7,-0.6 -1.3,-0.4 -2.1,-0.5 -0.7,-0.1 -1.4,-0.5 -2,-0.9 -0.6,1.4 -2.5,0.3 -2.7,2.2 -0.2,1.5 -0.4,2.7 -1.2,4.1 -0.7,1.4 -1.441736,1.956427 -2.641736,2.956427 -0.9,0.7 -3.296327,2.794491 -4.396327,2.394491"
     sodipodi:nodetypes="cccccccccccccccc"
     style="fill:#ff0075;fill-opacity:1" /><path
     id="path4"
     class="st0"
     d="m 29.75652,11.42269 c 1.1,-0.8 1.5,-1.7 1.8,-2.9 2.2,1.5 6,0.4 6.5,4.7 0.3,2.5 -2.427044,5.512856 -4.127044,7.412856 -0.6,0.6 -0.954591,0.807345 -1.754591,1.307345 -0.8,0.5 -1.112856,0.309182 -1.712856,0.809182 2.754591,-0.996327 4.420201,-2.22571 5.620201,-4.42571 1.1,-2.2 3.17429,-5.103673 1.77429,-7.403673 -1.2,-2 -3.5,-1.9 -5.4,-2.7 -0.3,-0.1 -1.2,-0.8 -1.5,-0.7 -0.4,0.1 -0.2,0.7 -0.3,1.1 -0.2,0.8 -0.3,2.1 -0.9,2.8"
     sodipodi:nodetypes="ccccscccccsc"
     style="fill:#ff0075;fill-opacity:1" /><path
     id="path5"
     class="st0"
     d="m 21.85652,23.42269 c -2.9,-0.4 -5.1,-4.1 -6.1,-6.5 -0.6,-1.3 -0.2,-2.8 -0.8,-4 -0.6,-1.6 -3,-0.8 -3.3,-2.4 -1.3,1.2 -2.8,1.4 -4.5,1.9 -2.1,0.7 -1.5,2.7 -0.5,4.1 1.1,1.7 3.438063,3.003674 5.332554,4.10551 2.281635,1.098164 4.976126,2.347244 6.772453,2.341735 -2.8,-0.7 -8.605007,-3.147245 -10.805007,-5.947245 -1,-1.3 -2.2,-2.6 -0.5,-3.9 0.7,-0.6 1.3,-0.4 2.1,-0.5 0.7,-0.1 1.4,-0.5 2,-0.9 0.6,1.4 2.5,0.3 2.7,2.2 0.2,1.5 0.252755,2.7 1.052755,4.1 0.7,1.4 1.147245,2.3 2.347245,3.3 0.9,0.8 3,2.6 4.2,2.1"
     sodipodi:nodetypes="cccccccccccccccc"
     style="fill:#ff0075;fill-opacity:1" /><path
     id="path6"
     class="st0"
     d="m 18.707438,12.231872 c 0,-1.3 -0.550918,-2.009182 -0.950918,-3.209182 -0.8,0.3 -1.7,0.8 -2.4,1.3 -0.8,0.6 -1.3,1.3 -2,2 0.1,-1 1.3,-2.1 2.1,-2.7 0.9,-0.7 2,-1.1 2.8,-1.9 0.1,0.8 0.2,1.5 0.4,2.4 0.1,0.5 0.2,1.1 0.3,1.6 0.1,0.7 -0.147245,0.212855 -0.147245,0.612855"
     sodipodi:nodetypes="ccccccccc"
     style="fill-opacity:1;fill:#ff0075" /></g>
<rect
   id="rect7"
   x="-1.1"
   y="-1.2"
   inkscape:label="rect2"
   class="st1"
   width="54.1"
   height="33.9">
</rect>
</svg>
